<svg xmlns="http://www.w3.org/2000/svg" viewBox="0 0 760 180" role="img" aria-labelledby="title desc">
  <title id="title">OmniShield Technologies logo</title>
  <desc id="desc">Crossed defensive swords with a heart at the crossing point beside the OmniShield Technologies wordmark.</desc>
  <defs>
    <linearGradient id="shieldGold" x1="68" y1="24" x2="132" y2="146" gradientUnits="userSpaceOnUse">
      <stop offset="0" stop-color="#f1d483"/>
      <stop offset="0.5" stop-color="#c9a84c"/>
      <stop offset="1" stop-color="#8f742d"/>
    </linearGradient>
    <linearGradient id="shieldBlue" x1="24" y1="30" x2="128" y2="140" gradientUnits="userSpaceOnUse">
      <stop offset="0" stop-color="#65b8ff"/>
      <stop offset="1" stop-color="#1f5f9e"/>
    </linearGradient>
  </defs>
  <rect width="760" height="180" fill="none"/>
  <g transform="translate(28 18)">
    <circle cx="72" cy="72" r="58" fill="#08111f" stroke="url(#shieldGold)" stroke-width="5"/>
    <path d="M25 130 119 36" fill="none" stroke="#c9a84c" stroke-width="9" stroke-linecap="round"/>
    <path d="M106 24 132 12 120 38Z" fill="#eef0f7" stroke="#c9a84c" stroke-width="4" stroke-linejoin="round"/>
    <path d="M20 122 34 136" fill="none" stroke="#3d9cf0" stroke-width="7" stroke-linecap="round"/>
    <path d="M11 143 42 112" fill="none" stroke="#eef0f7" stroke-width="5" stroke-linecap="round"/>

    <path d="M119 130 25 36" fill="none" stroke="#c9a84c" stroke-width="9" stroke-linecap="round"/>
    <path d="M38 24 12 12 24 38Z" fill="#eef0f7" stroke="#c9a84c" stroke-width="4" stroke-linejoin="round"/>
    <path d="M124 122 110 136" fill="none" stroke="#3d9cf0" stroke-width="7" stroke-linecap="round"/>
    <path d="M133 143 102 112" fill="none" stroke="#eef0f7" stroke-width="5" stroke-linecap="round"/>

    <path d="M72 95C58 83 45 73 45 59c0-10 8-18 18-18 5 0 10 2 14 6 4-4 9-6 14-6 10 0 18 8 18 18 0 14-13 24-37 36Z" fill="#c9a84c" stroke="#eef0f7" stroke-width="4" stroke-linejoin="round"/>
  </g>
  <g transform="translate(190 49)">
    <text x="0" y="53" font-family="Orbitron, Arial, Helvetica, sans-serif" font-size="48" font-weight="900" letter-spacing="3" fill="#eef0f7">OMNI</text>
    <text x="180" y="53" font-family="Orbitron, Arial, Helvetica, sans-serif" font-size="48" font-weight="900" letter-spacing="3" fill="#c9a84c">SHIELD</text>
    <text x="3" y="93" font-family="Arial, Helvetica, sans-serif" font-size="18" font-weight="700" letter-spacing="8" fill="#7a8fa8">TECHNOLOGIES</text>
  </g>
</svg>
