<svg xmlns="http://www.w3.org/2000/svg" viewBox="0 0 760 180" role="img" aria-labelledby="title desc">
  <title id="title">OmniShield Technologies logo</title>
  <desc id="desc">A defence shield containing a global orbital network beside the OmniShield Technologies wordmark.</desc>
  <defs>
    <linearGradient id="shieldShell" x1="27" y1="12" x2="127" y2="150" gradientUnits="userSpaceOnUse">
      <stop offset="0" stop-color="#0c5f88"/>
      <stop offset="0.55" stop-color="#0b2946"/>
      <stop offset="1" stop-color="#06111f"/>
    </linearGradient>
    <linearGradient id="skyAccent" x1="38" y1="34" x2="116" y2="120" gradientUnits="userSpaceOnUse">
      <stop offset="0" stop-color="#8be8ff"/>
      <stop offset="0.52" stop-color="#38d5ff"/>
      <stop offset="1" stop-color="#1f7fb8"/>
    </linearGradient>
    <linearGradient id="steelEdge" x1="18" y1="28" x2="136" y2="142" gradientUnits="userSpaceOnUse">
      <stop offset="0" stop-color="#d9f5ff"/>
      <stop offset="1" stop-color="#4d6f8a"/>
    </linearGradient>
  </defs>
  <rect width="760" height="180" fill="none"/>
  <g transform="translate(27 15)">
    <path d="M73 4 132 20v49c0 39-22 67-59 82-37-15-59-43-59-82V20L73 4Z" fill="url(#shieldShell)" stroke="url(#steelEdge)" stroke-width="6" stroke-linejoin="round"/>
    <path d="M73 24 113 35v34c0 26-15 46-40 58-25-12-40-32-40-58V35L73 24Z" fill="#09243a" stroke="#38d5ff" stroke-width="4" stroke-linejoin="round" opacity="0.95"/>
    <circle cx="73" cy="73" r="38" fill="none" stroke="#8be8ff" stroke-width="4" opacity="0.45"/>
    <ellipse cx="73" cy="73" rx="45" ry="16" fill="none" stroke="#38d5ff" stroke-width="5" transform="rotate(-31 73 73)"/>
    <ellipse cx="73" cy="73" rx="45" ry="16" fill="none" stroke="#8be8ff" stroke-width="4" transform="rotate(31 73 73)" opacity="0.8"/>
    <ellipse cx="73" cy="73" rx="18" ry="45" fill="none" stroke="#58a6ff" stroke-width="4" opacity="0.9"/>
    <path d="M44 96 62 80 79 87 102 57" fill="none" stroke="#bff4ff" stroke-width="4" stroke-linecap="round" stroke-linejoin="round"/>
    <circle cx="44" cy="96" r="6" fill="#38d5ff" stroke="#d9f5ff" stroke-width="3"/>
    <circle cx="62" cy="80" r="6" fill="#8be8ff" stroke="#d9f5ff" stroke-width="3"/>
    <circle cx="79" cy="87" r="6" fill="#38d5ff" stroke="#d9f5ff" stroke-width="3"/>
    <circle cx="102" cy="57" r="6" fill="#8be8ff" stroke="#d9f5ff" stroke-width="3"/>
    <circle cx="73" cy="73" r="5" fill="#d9f5ff"/>
  </g>
  <g transform="translate(190 49)">
    <text x="0" y="53" font-family="Orbitron, Arial, Helvetica, sans-serif" font-size="48" font-weight="900" letter-spacing="3" fill="#eef7fb">OMNI</text>
    <text x="180" y="53" font-family="Orbitron, Arial, Helvetica, sans-serif" font-size="48" font-weight="900" letter-spacing="3" fill="#38d5ff">SHIELD</text>
    <text x="3" y="93" font-family="Arial, Helvetica, sans-serif" font-size="18" font-weight="700" letter-spacing="8" fill="#9bb4c8">TECHNOLOGIES</text>
  </g>
</svg>
